<mxfile host="app.diagrams.net" agent="Mozilla/5.0 (Windows NT 10.0; Win64; x64) AppleWebKit/537.36 (KHTML, like Gecko) Chrome/131.0.0.0 Safari/537.36 Edg/131.0.0.0" version="24.9.1">
  <diagram name="Seite-1" id="MP-LLtCLatFORLgfSGGj">
    <mxGraphModel dx="3023" dy="1666" grid="0" gridSize="10" guides="1" tooltips="1" connect="1" arrows="1" fold="1" page="0" pageScale="1" pageWidth="827" pageHeight="1169" math="0" shadow="0">
      <root>
        <mxCell id="0" />
        <mxCell id="1" parent="0" />
        <mxCell id="mO9bzSYjmiyLwqUYZwDD-32" value="&lt;b&gt;User&lt;/b&gt;" style="rounded=0;whiteSpace=wrap;html=1;labelBackgroundColor=none;fillColor=#FAE5C7;strokeColor=#0F8B8D;fontColor=#143642;" parent="1" vertex="1">
          <mxGeometry x="200" y="400" width="120" height="60" as="geometry" />
        </mxCell>
        <mxCell id="mO9bzSYjmiyLwqUYZwDD-33" style="rounded=0;orthogonalLoop=1;jettySize=auto;html=1;exitX=1;exitY=0.5;exitDx=0;exitDy=0;entryX=0;entryY=0.5;entryDx=0;entryDy=0;labelBackgroundColor=none;strokeColor=#A8201A;fontColor=default;" parent="1" source="mO9bzSYjmiyLwqUYZwDD-34" target="mO9bzSYjmiyLwqUYZwDD-32" edge="1">
          <mxGeometry relative="1" as="geometry" />
        </mxCell>
        <mxCell id="mO9bzSYjmiyLwqUYZwDD-34" value="FirstName" style="ellipse;whiteSpace=wrap;html=1;labelBackgroundColor=none;fillColor=#FAE5C7;strokeColor=#0F8B8D;fontColor=#143642;" parent="1" vertex="1">
          <mxGeometry x="-494" y="267" width="120" height="80" as="geometry" />
        </mxCell>
        <mxCell id="mO9bzSYjmiyLwqUYZwDD-35" value="Realtionship" style="rhombus;whiteSpace=wrap;html=1;labelBackgroundColor=none;fillColor=#FAE5C7;strokeColor=#0F8B8D;fontColor=#143642;" parent="1" vertex="1">
          <mxGeometry x="400" y="400" width="80" height="80" as="geometry" />
        </mxCell>
        <mxCell id="mO9bzSYjmiyLwqUYZwDD-36" value="&lt;b&gt;User Dataset&lt;/b&gt;" style="rounded=0;whiteSpace=wrap;html=1;labelBackgroundColor=none;fillColor=#FAE5C7;strokeColor=#0F8B8D;fontColor=#143642;" parent="1" vertex="1">
          <mxGeometry x="560" y="400" width="120" height="60" as="geometry" />
        </mxCell>
        <mxCell id="mO9bzSYjmiyLwqUYZwDD-37" value="" style="endArrow=none;html=1;rounded=0;exitX=1;exitY=0.5;exitDx=0;exitDy=0;entryX=0;entryY=0.5;entryDx=0;entryDy=0;labelBackgroundColor=none;strokeColor=#A8201A;fontColor=default;" parent="1" source="mO9bzSYjmiyLwqUYZwDD-32" target="mO9bzSYjmiyLwqUYZwDD-35" edge="1">
          <mxGeometry width="50" height="50" relative="1" as="geometry">
            <mxPoint x="360" y="360" as="sourcePoint" />
            <mxPoint x="410" y="310" as="targetPoint" />
          </mxGeometry>
        </mxCell>
        <mxCell id="mO9bzSYjmiyLwqUYZwDD-38" value="" style="endArrow=none;html=1;rounded=0;exitX=1;exitY=0.5;exitDx=0;exitDy=0;entryX=0;entryY=0.5;entryDx=0;entryDy=0;labelBackgroundColor=none;strokeColor=#A8201A;fontColor=default;" parent="1" source="mO9bzSYjmiyLwqUYZwDD-35" target="mO9bzSYjmiyLwqUYZwDD-36" edge="1">
          <mxGeometry width="50" height="50" relative="1" as="geometry">
            <mxPoint x="520" y="390" as="sourcePoint" />
            <mxPoint x="570" y="340" as="targetPoint" />
          </mxGeometry>
        </mxCell>
        <mxCell id="mO9bzSYjmiyLwqUYZwDD-39" value="1" style="text;html=1;align=center;verticalAlign=middle;resizable=0;points=[];autosize=1;strokeColor=none;fillColor=none;labelBackgroundColor=none;fontColor=#143642;" parent="1" vertex="1">
          <mxGeometry x="345" y="400" width="30" height="30" as="geometry" />
        </mxCell>
        <mxCell id="mO9bzSYjmiyLwqUYZwDD-40" value="1" style="text;html=1;align=center;verticalAlign=middle;resizable=0;points=[];autosize=1;strokeColor=none;fillColor=none;labelBackgroundColor=none;fontColor=#143642;" parent="1" vertex="1">
          <mxGeometry x="505" y="400" width="30" height="30" as="geometry" />
        </mxCell>
        <mxCell id="mO9bzSYjmiyLwqUYZwDD-77" style="rounded=0;orthogonalLoop=1;jettySize=auto;html=1;strokeColor=#A8201A;fontColor=#143642;fillColor=#FAE5C7;" parent="1" source="mO9bzSYjmiyLwqUYZwDD-42" target="mO9bzSYjmiyLwqUYZwDD-36" edge="1">
          <mxGeometry relative="1" as="geometry" />
        </mxCell>
        <mxCell id="mO9bzSYjmiyLwqUYZwDD-42" value="&lt;b&gt;UserId&lt;/b&gt;&lt;div&gt;&lt;hr&gt;&lt;div&gt;&lt;b&gt;(FK)&lt;/b&gt;&lt;/div&gt;&lt;/div&gt;" style="ellipse;whiteSpace=wrap;html=1;labelBackgroundColor=none;fillColor=#FAE5C7;strokeColor=#0F8B8D;fontColor=#143642;" parent="1" vertex="1">
          <mxGeometry x="1060" y="280" width="120" height="80" as="geometry" />
        </mxCell>
        <mxCell id="mO9bzSYjmiyLwqUYZwDD-43" style="rounded=0;orthogonalLoop=1;jettySize=auto;html=1;exitX=1;exitY=0.5;exitDx=0;exitDy=0;entryX=0;entryY=0.75;entryDx=0;entryDy=0;labelBackgroundColor=none;strokeColor=#A8201A;fontColor=default;" parent="1" source="mO9bzSYjmiyLwqUYZwDD-44" target="mO9bzSYjmiyLwqUYZwDD-32" edge="1">
          <mxGeometry relative="1" as="geometry" />
        </mxCell>
        <mxCell id="mO9bzSYjmiyLwqUYZwDD-44" value="LastName " style="ellipse;whiteSpace=wrap;html=1;labelBackgroundColor=none;fillColor=#FAE5C7;strokeColor=#0F8B8D;fontColor=#143642;" parent="1" vertex="1">
          <mxGeometry x="-494" y="375" width="120" height="80" as="geometry" />
        </mxCell>
        <mxCell id="mO9bzSYjmiyLwqUYZwDD-45" style="rounded=0;orthogonalLoop=1;jettySize=auto;html=1;exitX=1;exitY=0.5;exitDx=0;exitDy=0;entryX=0;entryY=0.25;entryDx=0;entryDy=0;labelBackgroundColor=none;strokeColor=#A8201A;fontColor=default;" parent="1" source="mO9bzSYjmiyLwqUYZwDD-46" target="mO9bzSYjmiyLwqUYZwDD-32" edge="1">
          <mxGeometry relative="1" as="geometry" />
        </mxCell>
        <mxCell id="mO9bzSYjmiyLwqUYZwDD-46" value="&lt;b style=&quot;&quot;&gt;UserId&lt;/b&gt;&lt;div&gt;&lt;hr&gt;&lt;div&gt;&lt;span style=&quot;background-color: initial;&quot;&gt;&lt;b style=&quot;&quot;&gt;(PK)&lt;/b&gt;&lt;/span&gt;&lt;/div&gt;&lt;/div&gt;" style="ellipse;whiteSpace=wrap;html=1;labelBackgroundColor=none;fillColor=#FAE5C7;strokeColor=#0F8B8D;fontColor=#143642;" parent="1" vertex="1">
          <mxGeometry x="-494" y="160" width="120" height="80" as="geometry" />
        </mxCell>
        <mxCell id="mO9bzSYjmiyLwqUYZwDD-91" style="rounded=0;orthogonalLoop=1;jettySize=auto;html=1;strokeColor=#A8201A;fontColor=#143642;fillColor=#FAE5C7;" parent="1" source="mO9bzSYjmiyLwqUYZwDD-48" target="mO9bzSYjmiyLwqUYZwDD-36" edge="1">
          <mxGeometry relative="1" as="geometry" />
        </mxCell>
        <mxCell id="mO9bzSYjmiyLwqUYZwDD-48" value="&lt;span data-teams=&quot;true&quot;&gt;Relative With Cvd&lt;/span&gt;" style="ellipse;whiteSpace=wrap;html=1;labelBackgroundColor=none;fillColor=#FAE5C7;strokeColor=#0F8B8D;fontColor=#143642;" parent="1" vertex="1">
          <mxGeometry x="920" y="880" width="120" height="80" as="geometry" />
        </mxCell>
        <mxCell id="mO9bzSYjmiyLwqUYZwDD-79" style="rounded=0;orthogonalLoop=1;jettySize=auto;html=1;strokeColor=#A8201A;fontColor=#143642;fillColor=#FAE5C7;" parent="1" source="mO9bzSYjmiyLwqUYZwDD-52" target="mO9bzSYjmiyLwqUYZwDD-36" edge="1">
          <mxGeometry relative="1" as="geometry" />
        </mxCell>
        <mxCell id="mO9bzSYjmiyLwqUYZwDD-52" value="&lt;span data-teams=&quot;true&quot;&gt;DateOnly&amp;nbsp;&lt;/span&gt;" style="ellipse;whiteSpace=wrap;html=1;labelBackgroundColor=none;fillColor=#FAE5C7;strokeColor=#0F8B8D;fontColor=#143642;" parent="1" vertex="1">
          <mxGeometry x="1060" y="40" width="120" height="80" as="geometry" />
        </mxCell>
        <mxCell id="mO9bzSYjmiyLwqUYZwDD-94" style="rounded=0;orthogonalLoop=1;jettySize=auto;html=1;strokeColor=#A8201A;fontColor=#143642;fillColor=#FAE5C7;" parent="1" source="mO9bzSYjmiyLwqUYZwDD-54" target="mO9bzSYjmiyLwqUYZwDD-36" edge="1">
          <mxGeometry relative="1" as="geometry" />
        </mxCell>
        <mxCell id="mO9bzSYjmiyLwqUYZwDD-54" value="&lt;span data-teams=&quot;true&quot;&gt;Rheumatoid Arthritis&lt;/span&gt;" style="ellipse;whiteSpace=wrap;html=1;labelBackgroundColor=none;fillColor=#FAE5C7;strokeColor=#0F8B8D;fontColor=#143642;" parent="1" vertex="1">
          <mxGeometry x="480" y="880" width="120" height="80" as="geometry" />
        </mxCell>
        <mxCell id="mO9bzSYjmiyLwqUYZwDD-93" style="rounded=0;orthogonalLoop=1;jettySize=auto;html=1;strokeColor=#A8201A;fontColor=#143642;fillColor=#FAE5C7;" parent="1" source="mO9bzSYjmiyLwqUYZwDD-56" target="mO9bzSYjmiyLwqUYZwDD-36" edge="1">
          <mxGeometry relative="1" as="geometry" />
        </mxCell>
        <mxCell id="mO9bzSYjmiyLwqUYZwDD-56" value="&lt;span data-teams=&quot;true&quot;&gt;Suffered Atrial Fibrillation&lt;/span&gt;" style="ellipse;whiteSpace=wrap;html=1;labelBackgroundColor=none;fillColor=#FAE5C7;strokeColor=#0F8B8D;fontColor=#143642;" parent="1" vertex="1">
          <mxGeometry x="620" y="880" width="120" height="80" as="geometry" />
        </mxCell>
        <mxCell id="mO9bzSYjmiyLwqUYZwDD-78" style="rounded=0;orthogonalLoop=1;jettySize=auto;html=1;strokeColor=#A8201A;fontColor=#143642;fillColor=#FAE5C7;" parent="1" source="mO9bzSYjmiyLwqUYZwDD-58" target="mO9bzSYjmiyLwqUYZwDD-36" edge="1">
          <mxGeometry relative="1" as="geometry" />
        </mxCell>
        <mxCell id="mO9bzSYjmiyLwqUYZwDD-58" value="&lt;span data-teams=&quot;true&quot;&gt;&lt;b&gt;User Dataset ID&lt;/b&gt;&lt;/span&gt;&lt;div&gt;&lt;span data-teams=&quot;true&quot;&gt;&lt;b&gt;&lt;hr&gt;&lt;/b&gt;&lt;/span&gt;&lt;/div&gt;" style="ellipse;whiteSpace=wrap;html=1;labelBackgroundColor=none;fillColor=#FAE5C7;strokeColor=#0F8B8D;fontColor=#143642;" parent="1" vertex="1">
          <mxGeometry x="1060" y="160" width="120" height="80" as="geometry" />
        </mxCell>
        <mxCell id="mO9bzSYjmiyLwqUYZwDD-59" value="&lt;p style=&quot;mso-margin-top-alt:auto;mso-margin-bottom-alt:auto;&lt;br/&gt;line-height:normal;mso-outline-level:3&quot; class=&quot;MsoNormal&quot;&gt;&lt;b&gt;&lt;span style=&quot;font-size:13.5pt;&lt;br/&gt;font-family:&amp;quot;Times New Roman&amp;quot;,serif;mso-fareast-font-family:&amp;quot;Times New Roman&amp;quot;;&lt;br/&gt;mso-font-kerning:0pt;mso-ligatures:none;mso-fareast-language:DE&quot;&gt;ER-Diagramm&lt;br/&gt;für SQLite&lt;/span&gt;&lt;/b&gt;&lt;/p&gt;" style="text;html=1;align=center;verticalAlign=middle;resizable=0;points=[];autosize=1;strokeColor=none;fillColor=none;rotation=-1;labelBackgroundColor=none;fontColor=#143642;" parent="1" vertex="1">
          <mxGeometry x="370" y="120" width="140" height="80" as="geometry" />
        </mxCell>
        <mxCell id="mO9bzSYjmiyLwqUYZwDD-60" value="&lt;p style=&quot;mso-margin-top-alt:auto;mso-margin-bottom-alt:auto;&lt;br/&gt;margin-left:36.0pt;line-height:normal&quot; class=&quot;MsoNormal&quot;&gt;&lt;span style=&quot;font-size:12.0pt;&lt;br/&gt;font-family:&amp;quot;Times New Roman&amp;quot;,serif;mso-fareast-font-family:&amp;quot;Times New Roman&amp;quot;;&lt;br/&gt;mso-font-kerning:0pt;mso-ligatures:none;mso-fareast-language:DE&quot;&gt;Ein Benutzer&lt;br&gt;hat ein Dataset&lt;b&gt;&lt;/b&gt;&lt;/span&gt;&lt;/p&gt;" style="text;html=1;align=center;verticalAlign=middle;resizable=0;points=[];autosize=1;strokeColor=none;fillColor=none;labelBackgroundColor=none;fontColor=#143642;" parent="1" vertex="1">
          <mxGeometry x="375" y="188" width="130" height="70" as="geometry" />
        </mxCell>
        <mxCell id="mO9bzSYjmiyLwqUYZwDD-63" value="&lt;span data-teams=&quot;true&quot;&gt;SelectedUnit&lt;/span&gt;" style="ellipse;whiteSpace=wrap;html=1;labelBackgroundColor=none;fillColor=#FAE5C7;strokeColor=#0F8B8D;fontColor=#143642;" parent="1" vertex="1">
          <mxGeometry x="320" y="-190" width="120" height="80" as="geometry" />
        </mxCell>
        <mxCell id="mO9bzSYjmiyLwqUYZwDD-85" style="rounded=0;orthogonalLoop=1;jettySize=auto;html=1;strokeColor=#A8201A;fontColor=#143642;fillColor=#FAE5C7;" parent="1" source="mO9bzSYjmiyLwqUYZwDD-64" target="mO9bzSYjmiyLwqUYZwDD-36" edge="1">
          <mxGeometry relative="1" as="geometry" />
        </mxCell>
        <mxCell id="mO9bzSYjmiyLwqUYZwDD-64" value="&lt;span data-teams=&quot;true&quot;&gt;SmokeHabit&lt;/span&gt;" style="ellipse;whiteSpace=wrap;html=1;labelBackgroundColor=none;fillColor=#FAE5C7;strokeColor=#0F8B8D;fontColor=#143642;" parent="1" vertex="1">
          <mxGeometry x="470" y="-190" width="120" height="80" as="geometry" />
        </mxCell>
        <mxCell id="mO9bzSYjmiyLwqUYZwDD-84" style="rounded=0;orthogonalLoop=1;jettySize=auto;html=1;strokeColor=#A8201A;fontColor=#143642;fillColor=#FAE5C7;" parent="1" source="mO9bzSYjmiyLwqUYZwDD-65" target="mO9bzSYjmiyLwqUYZwDD-36" edge="1">
          <mxGeometry relative="1" as="geometry" />
        </mxCell>
        <mxCell id="mO9bzSYjmiyLwqUYZwDD-65" value="&lt;span data-teams=&quot;true&quot;&gt;Selected Townsend&lt;/span&gt;" style="ellipse;whiteSpace=wrap;html=1;labelBackgroundColor=none;fillColor=#FAE5C7;strokeColor=#0F8B8D;fontColor=#143642;" parent="1" vertex="1">
          <mxGeometry x="620" y="-190" width="120" height="80" as="geometry" />
        </mxCell>
        <mxCell id="mO9bzSYjmiyLwqUYZwDD-83" style="rounded=0;orthogonalLoop=1;jettySize=auto;html=1;strokeColor=#A8201A;fontColor=#143642;fillColor=#FAE5C7;" parent="1" source="mO9bzSYjmiyLwqUYZwDD-66" target="mO9bzSYjmiyLwqUYZwDD-36" edge="1">
          <mxGeometry relative="1" as="geometry" />
        </mxCell>
        <mxCell id="mO9bzSYjmiyLwqUYZwDD-66" value="&lt;span data-teams=&quot;true&quot;&gt;Selected Ethnicity&lt;/span&gt;" style="ellipse;whiteSpace=wrap;html=1;labelBackgroundColor=none;fillColor=#FAE5C7;strokeColor=#0F8B8D;fontColor=#143642;" parent="1" vertex="1">
          <mxGeometry x="770" y="-190" width="120" height="80" as="geometry" />
        </mxCell>
        <mxCell id="mO9bzSYjmiyLwqUYZwDD-82" style="rounded=0;orthogonalLoop=1;jettySize=auto;html=1;strokeColor=#A8201A;fontColor=#143642;fillColor=#FAE5C7;" parent="1" source="mO9bzSYjmiyLwqUYZwDD-67" target="mO9bzSYjmiyLwqUYZwDD-36" edge="1">
          <mxGeometry relative="1" as="geometry" />
        </mxCell>
        <mxCell id="mO9bzSYjmiyLwqUYZwDD-67" value="&lt;span data-teams=&quot;true&quot;&gt;Weight&lt;/span&gt;" style="ellipse;whiteSpace=wrap;html=1;labelBackgroundColor=none;fillColor=#FAE5C7;strokeColor=#0F8B8D;fontColor=#143642;" parent="1" vertex="1">
          <mxGeometry x="920" y="-190" width="120" height="80" as="geometry" />
        </mxCell>
        <mxCell id="mO9bzSYjmiyLwqUYZwDD-81" style="rounded=0;orthogonalLoop=1;jettySize=auto;html=1;strokeColor=#A8201A;fontColor=#143642;fillColor=#FAE5C7;" parent="1" source="mO9bzSYjmiyLwqUYZwDD-68" target="mO9bzSYjmiyLwqUYZwDD-36" edge="1">
          <mxGeometry relative="1" as="geometry" />
        </mxCell>
        <mxCell id="mO9bzSYjmiyLwqUYZwDD-68" value="&lt;span data-teams=&quot;true&quot;&gt;Height&lt;/span&gt;" style="ellipse;whiteSpace=wrap;html=1;labelBackgroundColor=none;fillColor=#FAE5C7;strokeColor=#0F8B8D;fontColor=#143642;" parent="1" vertex="1">
          <mxGeometry x="1060" y="-190" width="120" height="80" as="geometry" />
        </mxCell>
        <mxCell id="mO9bzSYjmiyLwqUYZwDD-80" style="rounded=0;orthogonalLoop=1;jettySize=auto;html=1;strokeColor=#A8201A;fontColor=#143642;fillColor=#FAE5C7;" parent="1" source="mO9bzSYjmiyLwqUYZwDD-69" target="mO9bzSYjmiyLwqUYZwDD-36" edge="1">
          <mxGeometry relative="1" as="geometry" />
        </mxCell>
        <mxCell id="mO9bzSYjmiyLwqUYZwDD-69" value="&lt;span data-teams=&quot;true&quot;&gt;Gender&lt;/span&gt;" style="ellipse;whiteSpace=wrap;html=1;labelBackgroundColor=none;fillColor=#FAE5C7;strokeColor=#0F8B8D;fontColor=#143642;" parent="1" vertex="1">
          <mxGeometry x="1060" y="-80" width="120" height="80" as="geometry" />
        </mxCell>
        <mxCell id="mO9bzSYjmiyLwqUYZwDD-90" style="rounded=0;orthogonalLoop=1;jettySize=auto;html=1;strokeColor=#A8201A;fontColor=#143642;fillColor=#FAE5C7;" parent="1" source="mO9bzSYjmiyLwqUYZwDD-70" target="mO9bzSYjmiyLwqUYZwDD-36" edge="1">
          <mxGeometry relative="1" as="geometry" />
        </mxCell>
        <mxCell id="mO9bzSYjmiyLwqUYZwDD-70" value="&lt;span data-teams=&quot;true&quot;&gt;Diabetes&lt;/span&gt;" style="ellipse;whiteSpace=wrap;html=1;labelBackgroundColor=none;fillColor=#FAE5C7;strokeColor=#0F8B8D;fontColor=#143642;" parent="1" vertex="1">
          <mxGeometry x="1060" y="880" width="120" height="80" as="geometry" />
        </mxCell>
        <mxCell id="mO9bzSYjmiyLwqUYZwDD-89" style="rounded=0;orthogonalLoop=1;jettySize=auto;html=1;strokeColor=#A8201A;fontColor=#143642;fillColor=#FAE5C7;" parent="1" source="mO9bzSYjmiyLwqUYZwDD-71" target="mO9bzSYjmiyLwqUYZwDD-36" edge="1">
          <mxGeometry relative="1" as="geometry" />
        </mxCell>
        <mxCell id="mO9bzSYjmiyLwqUYZwDD-71" value="&lt;span data-teams=&quot;true&quot;&gt;ReceivedBpt&lt;/span&gt;" style="ellipse;whiteSpace=wrap;html=1;labelBackgroundColor=none;fillColor=#FAE5C7;strokeColor=#0F8B8D;fontColor=#143642;" parent="1" vertex="1">
          <mxGeometry x="1060" y="760" width="120" height="80" as="geometry" />
        </mxCell>
        <mxCell id="mO9bzSYjmiyLwqUYZwDD-88" style="rounded=0;orthogonalLoop=1;jettySize=auto;html=1;strokeColor=#A8201A;fontColor=#143642;fillColor=#FAE5C7;" parent="1" source="mO9bzSYjmiyLwqUYZwDD-72" target="mO9bzSYjmiyLwqUYZwDD-36" edge="1">
          <mxGeometry relative="1" as="geometry" />
        </mxCell>
        <mxCell id="mO9bzSYjmiyLwqUYZwDD-72" value="&lt;span data-teams=&quot;true&quot;&gt;Systolic Blood Pressure&lt;/span&gt;" style="ellipse;whiteSpace=wrap;html=1;labelBackgroundColor=none;fillColor=#FAE5C7;strokeColor=#0F8B8D;fontColor=#143642;" parent="1" vertex="1">
          <mxGeometry x="1060" y="640" width="120" height="80" as="geometry" />
        </mxCell>
        <mxCell id="mO9bzSYjmiyLwqUYZwDD-87" style="rounded=0;orthogonalLoop=1;jettySize=auto;html=1;strokeColor=#A8201A;fontColor=#143642;fillColor=#FAE5C7;" parent="1" source="mO9bzSYjmiyLwqUYZwDD-73" target="mO9bzSYjmiyLwqUYZwDD-36" edge="1">
          <mxGeometry relative="1" as="geometry" />
        </mxCell>
        <mxCell id="mO9bzSYjmiyLwqUYZwDD-73" value="&lt;span data-teams=&quot;true&quot;&gt;Hdl Cholesterol&lt;/span&gt;" style="ellipse;whiteSpace=wrap;html=1;labelBackgroundColor=none;fillColor=#FAE5C7;strokeColor=#0F8B8D;fontColor=#143642;" parent="1" vertex="1">
          <mxGeometry x="1060" y="510" width="120" height="80" as="geometry" />
        </mxCell>
        <mxCell id="mO9bzSYjmiyLwqUYZwDD-76" style="rounded=0;orthogonalLoop=1;jettySize=auto;html=1;strokeColor=#A8201A;fontColor=#143642;fillColor=#FAE5C7;" parent="1" source="mO9bzSYjmiyLwqUYZwDD-74" target="mO9bzSYjmiyLwqUYZwDD-36" edge="1">
          <mxGeometry relative="1" as="geometry" />
        </mxCell>
        <mxCell id="mO9bzSYjmiyLwqUYZwDD-74" value="&lt;span data-teams=&quot;true&quot;&gt;Total Cholesterol&lt;/span&gt;" style="ellipse;whiteSpace=wrap;html=1;labelBackgroundColor=none;fillColor=#FAE5C7;strokeColor=#0F8B8D;fontColor=#143642;" parent="1" vertex="1">
          <mxGeometry x="1060" y="400" width="120" height="80" as="geometry" />
        </mxCell>
        <mxCell id="mO9bzSYjmiyLwqUYZwDD-92" style="rounded=0;orthogonalLoop=1;jettySize=auto;html=1;strokeColor=#A8201A;fontColor=#143642;fillColor=#FAE5C7;" parent="1" source="mO9bzSYjmiyLwqUYZwDD-50" target="mO9bzSYjmiyLwqUYZwDD-36" edge="1">
          <mxGeometry relative="1" as="geometry" />
        </mxCell>
        <mxCell id="mO9bzSYjmiyLwqUYZwDD-50" value="&lt;span data-teams=&quot;true&quot;&gt;ChronicKidney Disease&lt;/span&gt;" style="ellipse;whiteSpace=wrap;html=1;labelBackgroundColor=none;fillColor=#FAE5C7;strokeColor=#0F8B8D;fontColor=#143642;" parent="1" vertex="1">
          <mxGeometry x="770" y="880" width="120" height="80" as="geometry" />
        </mxCell>
        <mxCell id="mO9bzSYjmiyLwqUYZwDD-86" style="rounded=0;orthogonalLoop=1;jettySize=auto;html=1;entryX=0.5;entryY=0;entryDx=0;entryDy=0;strokeColor=#A8201A;fontColor=#143642;fillColor=#FAE5C7;" parent="1" source="mO9bzSYjmiyLwqUYZwDD-63" target="mO9bzSYjmiyLwqUYZwDD-36" edge="1">
          <mxGeometry relative="1" as="geometry" />
        </mxCell>
        <mxCell id="8FbLxhaqSliRQatvU2Sp-14" style="rounded=0;orthogonalLoop=1;jettySize=auto;html=1;fillColor=#a20025;strokeColor=#6F0000;" edge="1" parent="1" source="8FbLxhaqSliRQatvU2Sp-5" target="mO9bzSYjmiyLwqUYZwDD-32">
          <mxGeometry relative="1" as="geometry" />
        </mxCell>
        <mxCell id="8FbLxhaqSliRQatvU2Sp-5" value="RegistrationDate " style="ellipse;whiteSpace=wrap;html=1;labelBackgroundColor=none;fillColor=#FAE5C7;strokeColor=#0F8B8D;fontColor=#143642;" vertex="1" parent="1">
          <mxGeometry x="-494" y="-160" width="120" height="80" as="geometry" />
        </mxCell>
        <mxCell id="8FbLxhaqSliRQatvU2Sp-13" style="rounded=0;orthogonalLoop=1;jettySize=auto;html=1;fillColor=#a20025;strokeColor=#6F0000;" edge="1" parent="1" source="8FbLxhaqSliRQatvU2Sp-6" target="mO9bzSYjmiyLwqUYZwDD-32">
          <mxGeometry relative="1" as="geometry" />
        </mxCell>
        <mxCell id="8FbLxhaqSliRQatvU2Sp-6" value="DateOfBirth " style="ellipse;whiteSpace=wrap;html=1;labelBackgroundColor=none;fillColor=#FAE5C7;strokeColor=#0F8B8D;fontColor=#143642;" vertex="1" parent="1">
          <mxGeometry x="-494" y="-54" width="120" height="80" as="geometry" />
        </mxCell>
        <mxCell id="8FbLxhaqSliRQatvU2Sp-12" style="rounded=0;orthogonalLoop=1;jettySize=auto;html=1;fillColor=#a20025;strokeColor=#6F0000;" edge="1" parent="1" source="8FbLxhaqSliRQatvU2Sp-7" target="mO9bzSYjmiyLwqUYZwDD-32">
          <mxGeometry relative="1" as="geometry" />
        </mxCell>
        <mxCell id="8FbLxhaqSliRQatvU2Sp-7" value="Address " style="ellipse;whiteSpace=wrap;html=1;labelBackgroundColor=none;fillColor=#FAE5C7;strokeColor=#0F8B8D;fontColor=#143642;" vertex="1" parent="1">
          <mxGeometry x="-494" y="53" width="120" height="80" as="geometry" />
        </mxCell>
        <mxCell id="8FbLxhaqSliRQatvU2Sp-18" style="rounded=0;orthogonalLoop=1;jettySize=auto;html=1;fillColor=#a20025;strokeColor=#6F0000;" edge="1" parent="1" source="8FbLxhaqSliRQatvU2Sp-8" target="mO9bzSYjmiyLwqUYZwDD-32">
          <mxGeometry relative="1" as="geometry" />
        </mxCell>
        <mxCell id="8FbLxhaqSliRQatvU2Sp-8" value="PhoneNumber " style="ellipse;whiteSpace=wrap;html=1;labelBackgroundColor=none;fillColor=#FAE5C7;strokeColor=#0F8B8D;fontColor=#143642;" vertex="1" parent="1">
          <mxGeometry x="-494" y="783" width="120" height="80" as="geometry" />
        </mxCell>
        <mxCell id="8FbLxhaqSliRQatvU2Sp-17" style="rounded=0;orthogonalLoop=1;jettySize=auto;html=1;fillColor=#a20025;strokeColor=#6F0000;" edge="1" parent="1" source="8FbLxhaqSliRQatvU2Sp-9" target="mO9bzSYjmiyLwqUYZwDD-32">
          <mxGeometry relative="1" as="geometry" />
        </mxCell>
        <mxCell id="8FbLxhaqSliRQatvU2Sp-9" value="Email " style="ellipse;whiteSpace=wrap;html=1;labelBackgroundColor=none;fillColor=#FAE5C7;strokeColor=#0F8B8D;fontColor=#143642;" vertex="1" parent="1">
          <mxGeometry x="-494" y="682" width="120" height="80" as="geometry" />
        </mxCell>
        <mxCell id="8FbLxhaqSliRQatvU2Sp-16" style="rounded=0;orthogonalLoop=1;jettySize=auto;html=1;fillColor=#a20025;strokeColor=#6F0000;" edge="1" parent="1" source="8FbLxhaqSliRQatvU2Sp-10" target="mO9bzSYjmiyLwqUYZwDD-32">
          <mxGeometry relative="1" as="geometry" />
        </mxCell>
        <mxCell id="8FbLxhaqSliRQatvU2Sp-10" value="PasswordHash " style="ellipse;whiteSpace=wrap;html=1;labelBackgroundColor=none;fillColor=#FAE5C7;strokeColor=#0F8B8D;fontColor=#143642;" vertex="1" parent="1">
          <mxGeometry x="-494" y="581" width="120" height="80" as="geometry" />
        </mxCell>
        <mxCell id="8FbLxhaqSliRQatvU2Sp-15" style="rounded=0;orthogonalLoop=1;jettySize=auto;html=1;fillColor=#a20025;strokeColor=#6F0000;" edge="1" parent="1" source="8FbLxhaqSliRQatvU2Sp-11" target="mO9bzSYjmiyLwqUYZwDD-32">
          <mxGeometry relative="1" as="geometry" />
        </mxCell>
        <mxCell id="8FbLxhaqSliRQatvU2Sp-11" value="Username " style="ellipse;whiteSpace=wrap;html=1;labelBackgroundColor=none;fillColor=#FAE5C7;strokeColor=#0F8B8D;fontColor=#143642;" vertex="1" parent="1">
          <mxGeometry x="-494" y="480" width="120" height="80" as="geometry" />
        </mxCell>
      </root>
    </mxGraphModel>
  </diagram>
</mxfile>
